<?xml version="1.0" encoding="UTF-8"?>
<svg width="219px" height="265px" viewBox="0 0 219 265" version="1.1" xmlns="http://www.w3.org/2000/svg" xmlns:xlink="http://www.w3.org/1999/xlink">
    <!-- Generator: Sketch 51.3 (57544) - http://www.bohemiancoding.com/sketch -->
    <title>Artboard</title>
    <desc>Created with Sketch.</desc>
    <defs>
        <polygon id="path-1" points="0.912492542 0.782920951 122.428 0.782920951 122.428 153.9993 0.912492542 153.9993"></polygon>
        <polygon id="path-3" points="0.97168 0.203 7.35787946 0.203 7.35787946 32.2486286 0.97168 32.2486286"></polygon>
        <polygon id="path-5" points="0 0.96255 32.0462871 0.96255 32.0462871 7.35491161 0 7.35491161"></polygon>
    </defs>
    <g id="Artboard" stroke="none" stroke-width="1" fill="none" fill-rule="evenodd" opacity="0.118973214">
        <g id="Group-16" transform="translate(34.000000, 30.000000)">
            <g id="Group-3" transform="translate(13.000000, 48.797000)">
                <mask id="mask-2" fill="white">
                    <use xlink:href="#path-1"></use>
                </mask>
                <g id="Clip-2"></g>
                <path d="M45.7455,53.1223 C45.7455,66.1883 45.7465,79.2543 45.7455,92.3203 C45.7445,96.1393 43.6065,97.4963 40.2025,95.8053 C33.2505,92.3533 26.3375,88.8233 19.3485,85.4493 C17.7265,84.6663 15.8945,84.1853 14.1055,83.9153 C11.2955,83.4923 9.0705,84.7943 7.9675,87.1473 C6.8745,89.4783 7.3605,91.9553 9.3775,93.9733 C23.1235,107.7303 36.7875,121.5733 50.6645,135.1973 C60.4125,144.7683 72.2655,148.8843 85.8785,147.1453 C102.6025,145.0083 115.7215,130.1603 115.8165,113.3373 C115.9185,95.0353 115.8475,76.7313 115.8415,58.4283 C115.8415,57.8373 115.8035,57.2253 115.6485,56.6593 C114.7675,53.4473 111.9295,51.5633 108.6225,51.9503 C105.5855,52.3063 103.2205,55.0393 103.2065,58.2913 C103.1845,63.4283 103.2135,68.5653 103.2035,73.7023 C103.1995,75.9373 101.9125,77.3833 99.9675,77.3963 C98.0215,77.4103 96.7055,75.9613 96.7035,73.7463 C96.6905,66.3653 96.7335,58.9843 96.6685,51.6033 C96.6395,48.1523 93.7925,45.5013 90.3725,45.5313 C86.8845,45.5623 84.1695,48.1563 84.0695,51.6003 C84.0235,53.1943 84.0525,54.7913 84.0515,56.3873 C84.0495,62.1723 84.0595,67.9573 84.0415,73.7423 C84.0355,76.1583 82.4925,77.6433 80.3385,77.3743 C78.6025,77.1583 77.5535,75.7423 77.5515,73.5633 C77.5425,64.2383 77.5485,54.9123 77.5365,45.5863 C77.5315,41.9243 74.7035,39.0673 71.1475,39.0933 C67.6815,39.1193 64.9115,41.9873 64.9035,45.5803 C64.8945,49.6693 64.9055,53.7593 64.9045,57.8483 C64.9035,63.1343 64.9115,68.4203 64.8915,73.7063 C64.8815,76.1293 63.3485,77.6283 61.2085,77.3753 C59.4105,77.1633 58.3995,75.7603 58.3995,73.4333 C58.3965,53.7843 58.3995,34.1353 58.3915,14.4863 C58.3915,13.6933 58.4145,12.8723 58.2305,12.1123 C57.4475,8.8663 54.5875,6.9073 51.3115,7.2903 C48.0595,7.6723 45.7595,10.2413 45.7555,13.6253 C45.7365,26.7903 45.7475,39.9563 45.7455,53.1223 Z M76.6105,153.9993 C74.1195,153.5513 71.6005,153.2213 69.1425,152.6323 C60.1595,150.4823 52.4035,146.0943 45.8695,139.5653 C32.1105,125.8193 18.3465,112.0793 4.6195,98.3023 C1.1575,94.8283 0.0735,90.5923 1.5655,85.9263 C3.0545,81.2733 6.3675,78.3873 11.1915,77.5533 C14.8225,76.9263 18.3385,77.6953 21.6325,79.3233 C26.8985,81.9273 32.1405,84.5793 37.3945,87.2063 C37.9195,87.4693 38.4575,87.7073 39.2465,88.0783 L39.2465,85.7323 C39.2465,61.7943 39.2415,37.8563 39.2505,13.9193 C39.2535,7.6733 43.3245,2.4283 49.1295,1.1153 C57.2035,-0.7107 64.7785,5.2053 64.8795,13.5053 C64.9555,19.7883 64.8955,26.0723 64.8965,32.3553 L64.8965,34.2203 C68.4915,32.5683 72.0605,32.1213 75.6805,33.4833 C79.3345,34.8583 81.8025,37.4833 83.3095,41.1353 C86.8175,39.0393 90.4955,38.4433 94.3645,39.7173 C98.2455,40.9973 100.8485,43.6753 102.3835,47.3343 C103.9535,46.7773 105.4415,46.0423 107.0115,45.7273 C114.8755,44.1513 122.2735,49.9963 122.3135,58.0163 C122.4065,76.6673 122.5375,95.3223 122.2655,113.9693 C121.9825,133.3803 106.9435,150.3003 87.7415,153.4163 C86.7195,153.5823 85.7065,153.8043 84.6895,153.9993 L76.6105,153.9993 Z" id="Fill-1" fill="#231F20" mask="url(#mask-2)"></path>
            </g>
            <g id="Group-6" transform="translate(60.000000, 0.797000)">
                <mask id="mask-4" fill="white">
                    <use xlink:href="#path-3"></use>
                </mask>
                <g id="Clip-5"></g>
                <path d="M0.976,16.1467 C0.976,12.0727 0.964,7.9987 0.98,3.9247 C0.99,1.5427 2.182,0.1867 4.19,0.2027 C6.193,0.2197 7.346,1.5677 7.35,3.9797 C7.361,12.1267 7.36,20.2747 7.35,28.4227 C7.347,30.8567 6.225,32.2077 4.232,32.2477 C2.159,32.2897 0.985,30.9057 0.978,28.3687 C0.968,24.2937 0.976,20.2207 0.976,16.1467" id="Fill-4" fill="#231F20" mask="url(#mask-4)"></path>
            </g>
            <g id="Group-9" transform="translate(0.000000, 57.797000)">
                <mask id="mask-6" fill="white">
                    <use xlink:href="#path-5"></use>
                </mask>
                <g id="Clip-8"></g>
                <path d="M16.0258,7.3508 C11.9508,7.3538 7.8758,7.3578 3.8008,7.3518 C1.4108,7.3488 0.0428,6.2068 0.0008,4.2058 C-0.0412,2.1768 1.2978,0.9748 3.6838,0.9718 C11.9008,0.9598 20.1178,0.9588 28.3338,0.9728 C30.7188,0.9768 32.0758,2.1848 32.0458,4.1928 C32.0158,6.1898 30.6778,7.3288 28.2508,7.3418 C24.1758,7.3638 20.1008,7.3478 16.0258,7.3508" id="Fill-7" fill="#231F20" mask="url(#mask-6)"></path>
            </g>
            <path d="M112.3446,58.7645 C116.4196,58.7645 120.4946,58.7525 124.5696,58.7685 C126.9676,58.7785 128.3306,59.9525 128.3266,61.9445 C128.3236,63.9475 126.9776,65.1325 124.5766,65.1385 C116.2936,65.1585 108.0096,65.1625 99.7266,65.1435 C97.5766,65.1395 96.2396,63.8075 96.2816,61.8475 C96.3216,59.9865 97.6156,58.7865 99.7196,58.7725 C103.9276,58.7455 108.1366,58.7645 112.3446,58.7645" id="Fill-10" fill="#231F20"></path>
            <path d="M39.2641,36.8715 C38.3501,37.8255 37.6541,38.8825 36.6781,39.4895 C35.3641,40.3045 34.1001,39.6365 33.0881,38.6315 C29.6791,35.2485 26.2881,31.8475 22.8921,28.4525 C21.0521,26.6135 19.1911,24.7945 17.3821,22.9255 C15.7851,21.2755 15.7021,19.5685 17.0681,18.1515 C18.4871,16.6805 20.2781,16.7405 21.9841,18.4345 C27.1911,23.6035 32.3851,28.7875 37.5311,34.0165 C38.1911,34.6865 38.5441,35.6605 39.2641,36.8715" id="Fill-12" fill="#231F20"></path>
            <path d="M112.0702,20.1234 C111.3362,21.3404 110.9752,22.3004 110.3182,22.9674 C105.2052,28.1594 100.0452,33.3074 94.8742,38.4424 C93.1442,40.1604 91.3762,40.2564 89.9402,38.8214 C88.5852,37.4664 88.7072,35.5074 90.3352,33.8704 C95.4732,28.7034 100.6362,23.5594 105.7902,18.4054 C106.8562,17.3394 108.1352,16.5834 109.5382,17.4544 C110.5022,18.0524 111.1632,19.1364 112.0702,20.1234" id="Fill-14" fill="#231F20"></path>
        </g>
    </g>
</svg>